<mxfile host="Electron" modified="2023-07-19T14:33:05.203Z" agent="Mozilla/5.0 (Macintosh; Intel Mac OS X 10_15_7) AppleWebKit/537.36 (KHTML, like Gecko) draw.io/21.6.1 Chrome/112.0.5615.204 Electron/24.6.1 Safari/537.36" etag="TKg9QOVpW5C_58t__KlI" version="21.6.1" type="device">
  <diagram id="yqVo6E0V6-KVY2tr8xG8" name="Page-1">
    <mxGraphModel dx="1311" dy="1033" grid="1" gridSize="10" guides="1" tooltips="1" connect="1" arrows="1" fold="1" page="1" pageScale="1" pageWidth="1100" pageHeight="850" math="0" shadow="0">
      <root>
        <mxCell id="0" />
        <mxCell id="1" parent="0" />
        <mxCell id="AOUfSezDK8p7nUyXQl7E-1" value="Pipeline Flow" style="swimlane;whiteSpace=wrap;html=1;" parent="1" vertex="1">
          <mxGeometry x="168" y="43" width="765" height="765" as="geometry" />
        </mxCell>
        <mxCell id="gPdYPLcKXxXBDPgeOXmv-94" value="" style="edgeStyle=orthogonalEdgeStyle;rounded=0;orthogonalLoop=1;jettySize=auto;html=1;exitX=0.5;exitY=1;exitDx=0;exitDy=0;entryX=0.5;entryY=0;entryDx=0;entryDy=0;" edge="1" parent="AOUfSezDK8p7nUyXQl7E-1" source="gPdYPLcKXxXBDPgeOXmv-3" target="gPdYPLcKXxXBDPgeOXmv-66">
          <mxGeometry relative="1" as="geometry" />
        </mxCell>
        <mxCell id="gPdYPLcKXxXBDPgeOXmv-3" value="Hold for Manual Approval" style="rhombus;whiteSpace=wrap;html=1;" vertex="1" parent="AOUfSezDK8p7nUyXQl7E-1">
          <mxGeometry x="300.5" y="327" width="162" height="110" as="geometry" />
        </mxCell>
        <mxCell id="gPdYPLcKXxXBDPgeOXmv-24" value="" style="group;" vertex="1" connectable="0" parent="AOUfSezDK8p7nUyXQl7E-1">
          <mxGeometry x="85" y="57" width="593" height="242" as="geometry" />
        </mxCell>
        <mxCell id="gPdYPLcKXxXBDPgeOXmv-2" value="Build" style="rounded=1;whiteSpace=wrap;html=1;labelPosition=center;verticalLabelPosition=top;align=center;verticalAlign=bottom;" vertex="1" parent="gPdYPLcKXxXBDPgeOXmv-24">
          <mxGeometry width="593" height="242.00000000000006" as="geometry" />
        </mxCell>
        <mxCell id="gPdYPLcKXxXBDPgeOXmv-23" value="" style="group" vertex="1" connectable="0" parent="gPdYPLcKXxXBDPgeOXmv-24">
          <mxGeometry x="25.782608695652172" y="21.2280701754386" width="541.4347826086956" height="195.29824561403512" as="geometry" />
        </mxCell>
        <mxCell id="gPdYPLcKXxXBDPgeOXmv-5" value="Spin up environment" style="rounded=1;whiteSpace=wrap;html=1;" vertex="1" parent="gPdYPLcKXxXBDPgeOXmv-23">
          <mxGeometry width="154.69565217391303" height="50.94736842105264" as="geometry" />
        </mxCell>
        <mxCell id="gPdYPLcKXxXBDPgeOXmv-6" value="Preparing environment variables" style="rounded=1;whiteSpace=wrap;html=1;" vertex="1" parent="gPdYPLcKXxXBDPgeOXmv-23">
          <mxGeometry x="193.3695652173913" width="154.69565217391303" height="50.94736842105264" as="geometry" />
        </mxCell>
        <mxCell id="gPdYPLcKXxXBDPgeOXmv-14" value="" style="edgeStyle=orthogonalEdgeStyle;rounded=0;orthogonalLoop=1;jettySize=auto;html=1;exitX=1;exitY=0.5;exitDx=0;exitDy=0;entryX=0;entryY=0.5;entryDx=0;entryDy=0;" edge="1" parent="gPdYPLcKXxXBDPgeOXmv-23" source="gPdYPLcKXxXBDPgeOXmv-5" target="gPdYPLcKXxXBDPgeOXmv-6">
          <mxGeometry relative="1" as="geometry" />
        </mxCell>
        <mxCell id="gPdYPLcKXxXBDPgeOXmv-7" value="Install Node.js 14.15" style="rounded=1;whiteSpace=wrap;html=1;" vertex="1" parent="gPdYPLcKXxXBDPgeOXmv-23">
          <mxGeometry x="386.7391304347826" width="154.69565217391303" height="50.94736842105264" as="geometry" />
        </mxCell>
        <mxCell id="gPdYPLcKXxXBDPgeOXmv-15" value="" style="edgeStyle=orthogonalEdgeStyle;rounded=0;orthogonalLoop=1;jettySize=auto;html=1;exitX=1;exitY=0.5;exitDx=0;exitDy=0;entryX=0;entryY=0.5;entryDx=0;entryDy=0;" edge="1" parent="gPdYPLcKXxXBDPgeOXmv-23" source="gPdYPLcKXxXBDPgeOXmv-6" target="gPdYPLcKXxXBDPgeOXmv-7">
          <mxGeometry relative="1" as="geometry" />
        </mxCell>
        <mxCell id="gPdYPLcKXxXBDPgeOXmv-8" value="Install API Dependencies" style="rounded=1;whiteSpace=wrap;html=1;" vertex="1" parent="gPdYPLcKXxXBDPgeOXmv-23">
          <mxGeometry y="72.17543859649125" width="154.69565217391303" height="50.94736842105264" as="geometry" />
        </mxCell>
        <mxCell id="gPdYPLcKXxXBDPgeOXmv-18" value="" style="edgeStyle=orthogonalEdgeStyle;rounded=0;orthogonalLoop=1;jettySize=auto;html=1;exitX=0;exitY=0.5;exitDx=0;exitDy=0;entryX=1;entryY=0.5;entryDx=0;entryDy=0;" edge="1" parent="gPdYPLcKXxXBDPgeOXmv-23" source="gPdYPLcKXxXBDPgeOXmv-9" target="gPdYPLcKXxXBDPgeOXmv-8">
          <mxGeometry relative="1" as="geometry" />
        </mxCell>
        <mxCell id="gPdYPLcKXxXBDPgeOXmv-9" value="Install Front-End Dependencies" style="rounded=1;whiteSpace=wrap;html=1;" vertex="1" parent="gPdYPLcKXxXBDPgeOXmv-23">
          <mxGeometry x="193.3695652173913" y="72.17543859649125" width="154.69565217391303" height="50.94736842105264" as="geometry" />
        </mxCell>
        <mxCell id="gPdYPLcKXxXBDPgeOXmv-17" value="" style="edgeStyle=orthogonalEdgeStyle;rounded=0;orthogonalLoop=1;jettySize=auto;html=1;exitX=0;exitY=0.5;exitDx=0;exitDy=0;entryX=1;entryY=0.5;entryDx=0;entryDy=0;" edge="1" parent="gPdYPLcKXxXBDPgeOXmv-23" source="gPdYPLcKXxXBDPgeOXmv-10" target="gPdYPLcKXxXBDPgeOXmv-9">
          <mxGeometry relative="1" as="geometry" />
        </mxCell>
        <mxCell id="gPdYPLcKXxXBDPgeOXmv-10" value="Checkout code" style="rounded=1;whiteSpace=wrap;html=1;" vertex="1" parent="gPdYPLcKXxXBDPgeOXmv-23">
          <mxGeometry x="386.7391304347826" y="72.17543859649125" width="154.69565217391303" height="50.94736842105264" as="geometry" />
        </mxCell>
        <mxCell id="gPdYPLcKXxXBDPgeOXmv-16" value="" style="edgeStyle=orthogonalEdgeStyle;rounded=0;orthogonalLoop=1;jettySize=auto;html=1;exitX=0.5;exitY=1;exitDx=0;exitDy=0;entryX=0.5;entryY=0;entryDx=0;entryDy=0;" edge="1" parent="gPdYPLcKXxXBDPgeOXmv-23" source="gPdYPLcKXxXBDPgeOXmv-7" target="gPdYPLcKXxXBDPgeOXmv-10">
          <mxGeometry relative="1" as="geometry" />
        </mxCell>
        <mxCell id="gPdYPLcKXxXBDPgeOXmv-11" value="API Build" style="rounded=1;whiteSpace=wrap;html=1;" vertex="1" parent="gPdYPLcKXxXBDPgeOXmv-23">
          <mxGeometry x="386.7391304347826" y="144.3508771929825" width="154.69565217391303" height="50.94736842105264" as="geometry" />
        </mxCell>
        <mxCell id="gPdYPLcKXxXBDPgeOXmv-21" value="" style="edgeStyle=orthogonalEdgeStyle;rounded=0;orthogonalLoop=1;jettySize=auto;html=1;exitX=1;exitY=0.5;exitDx=0;exitDy=0;entryX=0;entryY=0.5;entryDx=0;entryDy=0;" edge="1" parent="gPdYPLcKXxXBDPgeOXmv-23" source="gPdYPLcKXxXBDPgeOXmv-12" target="gPdYPLcKXxXBDPgeOXmv-11">
          <mxGeometry relative="1" as="geometry" />
        </mxCell>
        <mxCell id="gPdYPLcKXxXBDPgeOXmv-12" value="Front-End Build" style="rounded=1;whiteSpace=wrap;html=1;" vertex="1" parent="gPdYPLcKXxXBDPgeOXmv-23">
          <mxGeometry x="193.3695652173913" y="144.3508771929825" width="154.69565217391303" height="50.94736842105264" as="geometry" />
        </mxCell>
        <mxCell id="gPdYPLcKXxXBDPgeOXmv-20" value="" style="edgeStyle=orthogonalEdgeStyle;rounded=0;orthogonalLoop=1;jettySize=auto;html=1;exitX=1;exitY=0.5;exitDx=0;exitDy=0;entryX=0;entryY=0.5;entryDx=0;entryDy=0;" edge="1" parent="gPdYPLcKXxXBDPgeOXmv-23" source="gPdYPLcKXxXBDPgeOXmv-13" target="gPdYPLcKXxXBDPgeOXmv-12">
          <mxGeometry relative="1" as="geometry" />
        </mxCell>
        <mxCell id="gPdYPLcKXxXBDPgeOXmv-13" value="Front-End Lint" style="rounded=1;whiteSpace=wrap;html=1;" vertex="1" parent="gPdYPLcKXxXBDPgeOXmv-23">
          <mxGeometry y="144.3508771929825" width="154.69565217391303" height="50.94736842105264" as="geometry" />
        </mxCell>
        <mxCell id="gPdYPLcKXxXBDPgeOXmv-19" value="" style="edgeStyle=orthogonalEdgeStyle;rounded=0;orthogonalLoop=1;jettySize=auto;html=1;exitX=0.5;exitY=1;exitDx=0;exitDy=0;entryX=0.5;entryY=0;entryDx=0;entryDy=0;" edge="1" parent="gPdYPLcKXxXBDPgeOXmv-23" source="gPdYPLcKXxXBDPgeOXmv-8" target="gPdYPLcKXxXBDPgeOXmv-13">
          <mxGeometry relative="1" as="geometry" />
        </mxCell>
        <mxCell id="gPdYPLcKXxXBDPgeOXmv-66" value="Deploy" style="rounded=1;whiteSpace=wrap;html=1;labelPosition=center;verticalLabelPosition=bottom;align=center;verticalAlign=top;container=0;" vertex="1" parent="AOUfSezDK8p7nUyXQl7E-1">
          <mxGeometry x="86" y="477" width="593" height="242.00000000000006" as="geometry" />
        </mxCell>
        <mxCell id="gPdYPLcKXxXBDPgeOXmv-68" value="Spin up environment" style="rounded=1;whiteSpace=wrap;html=1;container=0;" vertex="1" parent="AOUfSezDK8p7nUyXQl7E-1">
          <mxGeometry x="111.78260869565219" y="498.2280701754386" width="154.69565217391303" height="50.94736842105264" as="geometry" />
        </mxCell>
        <mxCell id="gPdYPLcKXxXBDPgeOXmv-69" value="Preparing environment variables" style="rounded=1;whiteSpace=wrap;html=1;container=0;" vertex="1" parent="AOUfSezDK8p7nUyXQl7E-1">
          <mxGeometry x="305.1521739130435" y="498.2280701754386" width="154.69565217391303" height="50.94736842105264" as="geometry" />
        </mxCell>
        <mxCell id="gPdYPLcKXxXBDPgeOXmv-70" value="" style="edgeStyle=orthogonalEdgeStyle;rounded=0;orthogonalLoop=1;jettySize=auto;html=1;exitX=1;exitY=0.5;exitDx=0;exitDy=0;entryX=0;entryY=0.5;entryDx=0;entryDy=0;" edge="1" parent="AOUfSezDK8p7nUyXQl7E-1" source="gPdYPLcKXxXBDPgeOXmv-68" target="gPdYPLcKXxXBDPgeOXmv-69">
          <mxGeometry relative="1" as="geometry" />
        </mxCell>
        <mxCell id="gPdYPLcKXxXBDPgeOXmv-71" value="Install Node.js 14.15" style="rounded=1;whiteSpace=wrap;html=1;container=0;" vertex="1" parent="AOUfSezDK8p7nUyXQl7E-1">
          <mxGeometry x="498.5217391304348" y="498.2280701754386" width="154.69565217391303" height="50.94736842105264" as="geometry" />
        </mxCell>
        <mxCell id="gPdYPLcKXxXBDPgeOXmv-72" value="" style="edgeStyle=orthogonalEdgeStyle;rounded=0;orthogonalLoop=1;jettySize=auto;html=1;exitX=1;exitY=0.5;exitDx=0;exitDy=0;entryX=0;entryY=0.5;entryDx=0;entryDy=0;" edge="1" parent="AOUfSezDK8p7nUyXQl7E-1" source="gPdYPLcKXxXBDPgeOXmv-69" target="gPdYPLcKXxXBDPgeOXmv-71">
          <mxGeometry relative="1" as="geometry" />
        </mxCell>
        <mxCell id="gPdYPLcKXxXBDPgeOXmv-73" value="Configure AWS Access Key ID" style="rounded=1;whiteSpace=wrap;html=1;container=0;" vertex="1" parent="AOUfSezDK8p7nUyXQl7E-1">
          <mxGeometry x="111.78260869565219" y="570.4035087719299" width="154.69565217391303" height="50.94736842105264" as="geometry" />
        </mxCell>
        <mxCell id="gPdYPLcKXxXBDPgeOXmv-74" value="" style="edgeStyle=orthogonalEdgeStyle;rounded=0;orthogonalLoop=1;jettySize=auto;html=1;exitX=0;exitY=0.5;exitDx=0;exitDy=0;entryX=1;entryY=0.5;entryDx=0;entryDy=0;" edge="1" parent="AOUfSezDK8p7nUyXQl7E-1" source="gPdYPLcKXxXBDPgeOXmv-75" target="gPdYPLcKXxXBDPgeOXmv-73">
          <mxGeometry relative="1" as="geometry" />
        </mxCell>
        <mxCell id="gPdYPLcKXxXBDPgeOXmv-75" value="Install AWS CLI - latest" style="rounded=1;whiteSpace=wrap;html=1;container=0;" vertex="1" parent="AOUfSezDK8p7nUyXQl7E-1">
          <mxGeometry x="305.1521739130435" y="570.4035087719299" width="154.69565217391303" height="50.94736842105264" as="geometry" />
        </mxCell>
        <mxCell id="gPdYPLcKXxXBDPgeOXmv-76" value="" style="edgeStyle=orthogonalEdgeStyle;rounded=0;orthogonalLoop=1;jettySize=auto;html=1;exitX=0;exitY=0.5;exitDx=0;exitDy=0;entryX=1;entryY=0.5;entryDx=0;entryDy=0;" edge="1" parent="AOUfSezDK8p7nUyXQl7E-1" source="gPdYPLcKXxXBDPgeOXmv-77" target="gPdYPLcKXxXBDPgeOXmv-75">
          <mxGeometry relative="1" as="geometry" />
        </mxCell>
        <mxCell id="gPdYPLcKXxXBDPgeOXmv-77" value="Setting Up Elastic Beanstalk CLI" style="rounded=1;whiteSpace=wrap;html=1;container=0;" vertex="1" parent="AOUfSezDK8p7nUyXQl7E-1">
          <mxGeometry x="498.5217391304348" y="570.4035087719299" width="154.69565217391303" height="50.94736842105264" as="geometry" />
        </mxCell>
        <mxCell id="gPdYPLcKXxXBDPgeOXmv-78" value="" style="edgeStyle=orthogonalEdgeStyle;rounded=0;orthogonalLoop=1;jettySize=auto;html=1;exitX=0.5;exitY=1;exitDx=0;exitDy=0;entryX=0.5;entryY=0;entryDx=0;entryDy=0;" edge="1" parent="AOUfSezDK8p7nUyXQl7E-1" source="gPdYPLcKXxXBDPgeOXmv-71" target="gPdYPLcKXxXBDPgeOXmv-77">
          <mxGeometry relative="1" as="geometry" />
        </mxCell>
        <mxCell id="gPdYPLcKXxXBDPgeOXmv-81" value="Deploy App" style="rounded=1;whiteSpace=wrap;html=1;container=0;" vertex="1" parent="AOUfSezDK8p7nUyXQl7E-1">
          <mxGeometry x="305.1521739130435" y="642.578947368421" width="154.69565217391303" height="50.94736842105264" as="geometry" />
        </mxCell>
        <mxCell id="gPdYPLcKXxXBDPgeOXmv-82" value="" style="edgeStyle=orthogonalEdgeStyle;rounded=0;orthogonalLoop=1;jettySize=auto;html=1;exitX=1;exitY=0.5;exitDx=0;exitDy=0;entryX=0;entryY=0.5;entryDx=0;entryDy=0;" edge="1" parent="AOUfSezDK8p7nUyXQl7E-1" source="gPdYPLcKXxXBDPgeOXmv-83" target="gPdYPLcKXxXBDPgeOXmv-81">
          <mxGeometry relative="1" as="geometry" />
        </mxCell>
        <mxCell id="gPdYPLcKXxXBDPgeOXmv-83" value="Checkout code" style="rounded=1;whiteSpace=wrap;html=1;container=0;" vertex="1" parent="AOUfSezDK8p7nUyXQl7E-1">
          <mxGeometry x="111.78260869565219" y="642.578947368421" width="154.69565217391303" height="50.94736842105264" as="geometry" />
        </mxCell>
        <mxCell id="gPdYPLcKXxXBDPgeOXmv-84" value="" style="edgeStyle=orthogonalEdgeStyle;rounded=0;orthogonalLoop=1;jettySize=auto;html=1;exitX=0.5;exitY=1;exitDx=0;exitDy=0;entryX=0.5;entryY=0;entryDx=0;entryDy=0;" edge="1" parent="AOUfSezDK8p7nUyXQl7E-1" source="gPdYPLcKXxXBDPgeOXmv-73" target="gPdYPLcKXxXBDPgeOXmv-83">
          <mxGeometry relative="1" as="geometry" />
        </mxCell>
        <mxCell id="gPdYPLcKXxXBDPgeOXmv-90" value="" style="edgeStyle=orthogonalEdgeStyle;rounded=0;orthogonalLoop=1;jettySize=auto;html=1;exitX=0.5;exitY=1;exitDx=0;exitDy=0;entryX=0.5;entryY=0;entryDx=0;entryDy=0;" edge="1" parent="AOUfSezDK8p7nUyXQl7E-1" source="gPdYPLcKXxXBDPgeOXmv-2" target="gPdYPLcKXxXBDPgeOXmv-3">
          <mxGeometry relative="1" as="geometry" />
        </mxCell>
        <mxCell id="gPdYPLcKXxXBDPgeOXmv-89" value="commit pushed to main branch" style="edgeStyle=orthogonalEdgeStyle;rounded=0;orthogonalLoop=1;jettySize=auto;html=1;entryX=0.5;entryY=0.5;entryDx=0;entryDy=15;entryPerimeter=0;horizontal=0;labelPosition=center;verticalLabelPosition=top;align=center;verticalAlign=bottom;labelBackgroundColor=none;" edge="1" parent="1" source="gPdYPLcKXxXBDPgeOXmv-1" target="gPdYPLcKXxXBDPgeOXmv-96">
          <mxGeometry x="0.0024" relative="1" as="geometry">
            <mxPoint x="80" y="180" as="targetPoint" />
            <mxPoint as="offset" />
          </mxGeometry>
        </mxCell>
        <mxCell id="gPdYPLcKXxXBDPgeOXmv-1" value="GitHub Repository" style="dashed=0;outlineConnect=0;html=1;align=center;labelPosition=center;verticalLabelPosition=bottom;verticalAlign=top;shape=mxgraph.weblogos.github" vertex="1" parent="1">
          <mxGeometry x="42.5" y="388" width="75" height="75" as="geometry" />
        </mxCell>
        <mxCell id="gPdYPLcKXxXBDPgeOXmv-88" value="" style="edgeStyle=orthogonalEdgeStyle;rounded=0;orthogonalLoop=1;jettySize=auto;html=1;exitX=1;exitY=0.5;exitDx=0;exitDy=0;exitPerimeter=0;" edge="1" parent="1" source="gPdYPLcKXxXBDPgeOXmv-96">
          <mxGeometry relative="1" as="geometry">
            <mxPoint x="250" y="150" as="targetPoint" />
            <mxPoint x="110" y="150.0588235294117" as="sourcePoint" />
          </mxGeometry>
        </mxCell>
        <mxCell id="gPdYPLcKXxXBDPgeOXmv-93" value="CircleCi user approves the deployment" style="edgeStyle=orthogonalEdgeStyle;rounded=0;orthogonalLoop=1;jettySize=auto;html=1;labelBackgroundColor=none;labelPosition=center;verticalLabelPosition=top;align=center;verticalAlign=bottom;" edge="1" parent="1" source="gPdYPLcKXxXBDPgeOXmv-92" target="gPdYPLcKXxXBDPgeOXmv-3">
          <mxGeometry relative="1" as="geometry" />
        </mxCell>
        <mxCell id="gPdYPLcKXxXBDPgeOXmv-92" value="CircleCi User" style="outlineConnect=0;dashed=0;verticalLabelPosition=bottom;verticalAlign=top;align=center;html=1;shape=mxgraph.aws3.user;fillColor=#D2D3D3;gradientColor=none;" vertex="1" parent="1">
          <mxGeometry x="980" y="394" width="45" height="63" as="geometry" />
        </mxCell>
        <mxCell id="gPdYPLcKXxXBDPgeOXmv-95" value="END" style="html=1;dashed=0;whiteSpace=wrap;shape=mxgraph.dfd.start" vertex="1" parent="1">
          <mxGeometry x="962.5" y="686" width="80" height="30" as="geometry" />
        </mxCell>
        <mxCell id="gPdYPLcKXxXBDPgeOXmv-96" value="START" style="html=1;dashed=0;whiteSpace=wrap;shape=mxgraph.dfd.start" vertex="1" parent="1">
          <mxGeometry x="40" y="135" width="80" height="30" as="geometry" />
        </mxCell>
        <mxCell id="gPdYPLcKXxXBDPgeOXmv-97" value="" style="edgeStyle=orthogonalEdgeStyle;rounded=0;orthogonalLoop=1;jettySize=auto;html=1;exitX=1;exitY=0.75;exitDx=0;exitDy=0;entryX=0;entryY=0.5;entryDx=0;entryDy=0;entryPerimeter=0;" edge="1" parent="1" source="gPdYPLcKXxXBDPgeOXmv-66" target="gPdYPLcKXxXBDPgeOXmv-95">
          <mxGeometry relative="1" as="geometry">
            <mxPoint x="950" y="701.1176470588236" as="targetPoint" />
          </mxGeometry>
        </mxCell>
      </root>
    </mxGraphModel>
  </diagram>
</mxfile>
